<svg width="40" height="50" viewBox="0 0 40 50" fill="none" xmlns="http://www.w3.org/2000/svg">
<path d="M20.9713 32.8969L39.5925 12.0652C39.8309 11.7991 39.8895 11.4182 39.744 11.0923C39.5986 10.7664 39.2751 10.557 38.9178 10.557H29.4382L36.6051 1.46589C36.9147 1.07359 36.8471 0.503847 36.4548 0.194835C36.0625 -0.115383 35.4934 -0.0477867 35.1838 0.345117L27.1333 10.557H1.21792C0.860634 10.557 0.536541 10.7676 0.391091 11.0941C0.245641 11.4206 0.305994 11.8021 0.54499 12.0682L19.1608 32.7587V48.1695C19.1608 48.1761 19.1626 48.1827 19.1626 48.1894H12.9535C12.4532 48.1894 12.0482 48.595 12.0482 49.0947C12.0482 49.5944 12.4532 50 12.9535 50H27.1756C27.6753 50 28.0809 49.5944 28.0809 49.0947C28.0809 48.595 27.6753 48.1894 27.1756 48.1894H20.9695C20.9695 48.1827 20.9713 48.1761 20.9713 48.1695V32.8969ZM26.5606 23.9272L20.127 31.1243L13.6512 23.9272H26.5606ZM36.8942 12.367L28.1792 22.1165H20.325L28.0109 12.367H36.8942ZM25.7054 12.367L18.0195 22.1165H12.0222L3.24999 12.367H25.7054Z" fill="white"/>
</svg>
