<svg width="70" height="70" viewBox="0 0 70 70" fill="none" xmlns="http://www.w3.org/2000/svg">
<g clip-path="url(#clip0)">
<path d="M35.0011 0.970154C53.7961 0.970154 69.0309 16.205 69.0298 35C69.0309 53.7961 53.795 69.032 35 69.0298C16.2039 69.0309 0.970159 53.7961 0.971253 35.0011C0.967972 16.205 16.2039 0.970154 35.0011 0.970154Z" stroke="white" stroke-width="2" stroke-miterlimit="10"/>
<path d="M35 1.09375V68.9062" stroke="white" stroke-width="2" stroke-miterlimit="10"/>
<path d="M68.9062 35H1.09375" stroke="white" stroke-width="2" stroke-miterlimit="10"/>
<path d="M32.8125 1.09375C32.8125 1.09375 17.5 13.125 17.5 35C17.5 56.875 32.8125 68.9062 32.8125 68.9062" stroke="white" stroke-width="2" stroke-miterlimit="10"/>
<path d="M37.1875 1.09375C37.1875 1.09375 52.5 13.125 52.5 35C52.5 56.875 37.1875 68.9062 37.1875 68.9062" stroke="white" stroke-width="2" stroke-miterlimit="10"/>
<path d="M8.75 13.125C8.75 13.125 14.2188 24.0625 35 24.0625C55.7812 24.0625 61.25 13.125 61.25 13.125" stroke="white" stroke-width="2" stroke-miterlimit="10"/>
<path d="M8.75 56.875C8.75 56.875 14.2188 45.9375 35 45.9375C55.7812 45.9375 61.25 56.875 61.25 56.875" stroke="white" stroke-width="2" stroke-miterlimit="10"/>
</g>
<defs>
<clipPath id="clip0">
<rect width="70" height="70" fill="white"/>
</clipPath>
</defs>
</svg>
