<svg width="59" height="50" viewBox="0 0 59 50" fill="none" xmlns="http://www.w3.org/2000/svg">
<path fill-rule="evenodd" clip-rule="evenodd" d="M10.9377 0.782037V11.5344C10.9377 12.9101 10.1736 14.1461 8.9431 14.7617C8.24622 15.1101 7.81262 15.8117 7.81262 16.5914V47.657C7.81262 48.3453 7.51183 48.9961 6.98682 49.4421C6.56025 49.8054 6.0204 50 5.46492 50C5.33758 50 5.20867 49.9898 5.08054 49.9687C3.96568 49.7875 3.12505 48.7578 3.12505 47.5734V16.5914C3.12505 15.8117 2.69145 15.1101 1.99456 14.7625C0.764074 14.1469 0 12.9109 0 11.5352V0.782037C0 0.389849 0.290629 0.0585998 0.678916 0.00703734C1.06564 -0.0453064 1.43283 0.199225 1.53518 0.578131L3.38833 7.46094L4.70163 0.63438C4.77195 0.266412 5.09461 0.000787343 5.46883 0.000787343C5.84306 0.000787343 6.16572 0.266412 6.23603 0.63438L7.54933 7.46094L9.4017 0.578912C9.50405 0.200006 9.8689 -0.0453064 10.2587 0.00781859C10.647 0.0585998 10.9377 0.390631 10.9377 0.782037ZM6.25009 16.5914C6.25009 15.2156 7.01417 13.9797 8.24465 13.3641C8.94154 13.0156 9.37514 12.3141 9.37514 11.5352V6.68906L8.1759 11.1414C8.08137 11.493 7.75558 11.725 7.39308 11.7195C7.02979 11.7055 6.72354 11.4437 6.65479 11.0859L5.46883 4.91875L4.28209 11.0859C4.21334 11.4437 3.90709 11.7062 3.5438 11.7195C3.1727 11.7227 2.85551 11.493 2.76098 11.1414L1.56252 6.68906V11.5344C1.56252 12.3141 1.99612 13.0156 2.69301 13.3641C3.9235 13.9797 4.68757 15.2156 4.68757 16.5914V47.5734C4.68757 47.9929 4.97039 48.3679 5.33133 48.4273C5.56805 48.464 5.79618 48.4031 5.97431 48.2523C6.15009 48.1039 6.25009 47.8867 6.25009 47.657V16.5914ZM57.969 7.20447e-07C56.6917 7.20447e-07 55.5924 0.95314 55.4127 2.21722L52.5087 22.5456C52.4744 22.7886 52.5556 23.0339 52.7283 23.2074L54.0627 24.5472V47.6562C54.0627 48.9484 55.1143 50 56.4065 50C57.6987 50 58.7503 48.9484 58.7503 47.6562V0.780481C58.7503 0.349225 58.4003 7.20447e-07 57.969 7.20447e-07ZM57.1878 47.657C57.1878 48.0874 56.837 48.4382 56.4065 48.4382C55.976 48.4382 55.6252 48.0874 55.6252 47.657V24.2246C55.6252 24.0175 55.5432 23.8199 55.3971 23.673L54.1096 22.38L56.9581 2.43754C56.9862 2.24457 57.0675 2.06956 57.187 1.92815V47.657H57.1878ZM10.3125 24.6247C10.3125 13.252 19.5647 4 30.9375 4C42.3103 4 51.5625 13.252 51.5625 24.6247C51.5625 35.9973 42.3103 45.2493 30.9375 45.2493C19.5647 45.2493 10.3125 35.9973 10.3125 24.6247ZM12.1875 24.6247C12.1875 34.9632 20.5987 43.3744 30.9375 43.3744C41.2762 43.3744 49.6875 34.9632 49.6875 24.6247C49.6875 14.2861 41.2762 5.87497 30.9375 5.87497C20.5987 5.87497 12.1875 14.2861 12.1875 24.6247ZM16.875 25.0623C16.875 17.3083 23.1834 11 30.9375 11C38.6915 11 45 17.3083 45 25.0623C45 32.8162 38.6915 39.1245 30.9375 39.1245C23.1834 39.1245 16.875 32.8162 16.875 25.0623ZM18.75 25.0623C18.75 31.7822 24.2175 37.2496 30.9375 37.2496C37.6575 37.2496 43.125 31.7822 43.125 25.0623C43.125 18.3424 37.6575 12.875 30.9375 12.875C24.2175 12.875 18.75 18.3424 18.75 25.0623Z" fill="white"/>
</svg>
