<svg width="50" height="50" viewBox="0 0 50 50" fill="none" xmlns="http://www.w3.org/2000/svg">
<g clip-path="url(#clip0)">
<path d="M25 50C20.0555 50 15.222 48.5338 11.1107 45.7868C6.99952 43.0397 3.79521 39.1353 1.90302 34.5671C0.0108244 29.9989 -0.484259 24.9723 0.480372 20.1228C1.445 15.2732 3.82602 10.8187 7.32233 7.32234C10.8186 3.82603 15.2732 1.44501 20.1227 0.480379C24.9723 -0.484251 29.9989 0.0108321 34.5671 1.90302C39.1352 3.79521 43.0397 6.99953 45.7867 11.1108C48.5338 15.222 50 20.0555 50 25C49.9947 31.6288 47.3591 37.9846 42.6718 42.6718C37.9846 47.3591 31.6288 49.9947 25 50ZM9.5 42C13.7328 45.8734 19.2625 48.0215 25 48.0215C30.7376 48.0215 36.2672 45.8734 40.5 42C39.12 38.84 35.08 37.16 31.82 35.82C28.56 34.48 28 32.6 28 31C28.0137 30.2053 28.1852 29.4212 28.5045 28.6934C28.8238 27.9655 29.2846 27.3083 29.86 26.76C30.6017 26.0991 31.19 25.2841 31.5838 24.3721C31.9776 23.4601 32.1674 22.473 32.14 21.48C32.2039 20.51 32.0656 19.5373 31.7339 18.6235C31.4022 17.7097 30.8844 16.8748 30.2131 16.1716C29.5419 15.4684 28.7319 14.9123 27.8346 14.5385C26.9372 14.1646 25.9719 13.9813 25 14C24.0337 13.9795 23.0739 14.1627 22.1831 14.5379C21.2924 14.9131 20.4907 15.4717 19.8303 16.1774C19.1698 16.8831 18.6655 17.7201 18.3502 18.6337C18.0348 19.5473 17.9155 20.5172 18 21.48C17.9493 22.4648 18.1166 23.4487 18.49 24.3614C18.8634 25.2741 19.4336 26.0931 20.16 26.76C20.7318 27.31 21.1888 27.9679 21.5047 28.6957C21.8205 29.4235 21.9889 30.2067 22 31C22 32.6 21.56 34.4 18.32 35.72C15.08 37.04 10.88 38.82 9.5 42ZM25 12C26.2351 11.979 27.4613 12.2125 28.6023 12.686C29.7433 13.1594 30.7746 13.8627 31.632 14.752C32.4894 15.6413 33.1545 16.6976 33.586 17.8551C34.0175 19.0126 34.2061 20.2465 34.14 21.48C34.1711 22.7576 33.9222 24.0266 33.4108 25.1978C32.8995 26.3691 32.1381 27.4142 31.18 28.26C30.4481 28.987 30.0253 29.9687 30 31C30 31.88 30 32.88 32.42 33.88C35.78 35.28 40.06 37.06 41.98 40.5C44.9828 37.2049 46.9633 33.108 47.6805 28.7079C48.3976 24.3078 47.8205 19.7941 46.0194 15.716C44.2183 11.6379 41.2708 8.17108 37.5355 5.7374C33.8002 3.30373 29.4382 2.00808 24.98 2.00808C20.5218 2.00808 16.1598 3.30373 12.4245 5.7374C8.68919 8.17108 5.74169 11.6379 3.94058 15.716C2.13947 19.7941 1.56239 24.3078 2.27954 28.7079C2.99669 33.108 4.97716 37.2049 7.98 40.5C10 37.06 14.2 35.28 17.4 34C20 32.88 20 31.84 20 31C19.9908 29.9771 19.59 28.9965 18.88 28.26C17.9343 27.4085 17.1865 26.3603 16.6889 25.1891C16.1914 24.0178 15.9563 22.7518 16 21.48C15.9075 20.2522 16.0732 19.0185 16.4863 17.8586C16.8994 16.6986 17.5508 15.638 18.3986 14.745C19.2464 13.852 20.2717 13.1464 21.4087 12.6736C22.5457 12.2009 23.769 11.9714 25 12Z" fill="white"/>
</g>
<defs>
<clipPath id="clip0">
<rect width="50" height="50" fill="white"/>
</clipPath>
</defs>
</svg>
