<svg width="25" height="25" viewBox="0 0 25 25" fill="none" xmlns="http://www.w3.org/2000/svg">
<path d="M8.38451 0C3.7615 0 0 3.7615 0 8.38451C0 13.0075 3.7615 16.769 8.38451 16.769C10.5079 16.769 12.4437 15.9694 13.9225 14.6635L24.259 25L25 24.259L14.6635 13.9225C15.9694 12.4437 16.769 10.5079 16.769 8.38451C16.769 3.7615 13.0075 0 8.38451 0ZM8.38451 15.721C4.33899 15.721 1.04806 12.43 1.04806 8.38451C1.04806 4.33899 4.33899 1.04806 8.38451 1.04806C12.43 1.04806 15.721 4.33899 15.721 8.38451C15.721 12.43 12.43 15.721 8.38451 15.721Z" fill="#7C7C7C"/>
</svg>
